#!OML:ASF F:\Work\Patient Classification 1\justin\Session 1\justin.ASF
:FULLY-SPECIFIED
:DEGREES
8456
root 1.95298 16.3241 9.12887 20.871 -37.3153 -15.7316
lowerback 25.5717 1.07866 0.817431
upperback 3.30738 2.15696 5.9504
thorax -10.7922 1.04368 5.53152
lowerneck -26.6803 5.56672 -9.0567
upperneck 3.77247 9.68099 4.57923
head 4.56722 4.93326 3.89524
rclavicle 5.76476e-015 1.04362e-015
rhumerus -41.8199 15.5668 -87.7157
rradius 116.074
rwrist -6.64787
rhand -11.8033 29.2539
rfingers 7.12502
rthumb 14.2465 -0.23747
lclavicle 5.76476e-015 1.04362e-015
lhumerus 52.1098 26.6385 28.7641
lradius 20.7655
lwrist -13.7765
lhand -8.2437 9.98125
lfingers 7.12502
lthumb 17.6743 39.198
rfemur -5.8521 1.52945 14.3323
rtibia 42.2
rfoot -16.2465 6.52573
rtoes -34.6446
lfemur -51.7688 5.10573 5.62671
ltibia 46.8953
lfoot -0.403777 -9.66975
ltoes -0.973792
8457
root 1.93729 16.3381 9.16974 20.9774 -37.5883 -15.8798
lowerback 25.4096 1.0556 0.914939
upperback 3.37478 2.13121 5.86811
thorax -10.6195 1.02194 5.38394
lowerneck -26.7408 5.83209 -8.60556
upperneck 3.73745 9.9245 4.23791
head 4.57087 5.03315 3.73813
rclavicle -5.26282e-014 1.48095e-014
rhumerus -42.3358 15.3674 -87.6812
rradius 116.428
rwrist -7.51946
rhand -11.6013 29.237
rfingers 7.12502
rthumb 14.4412 -0.240524
lclavicle -5.26282e-014 1.48095e-014
lhumerus 51.1422 26.6037 27.7675
lradius 20.8691
lwrist -13.7612
lhand -8.47834 9.95263
lfingers 7.12502
lthumb 17.4485 39.1895
rfemur -5.59202 1.8214 14.351
rtibia 41.7545
rfoot -15.9913 6.37133
rtoes -34.3427
lfemur -51.6262 5.37091 5.51515
ltibia 47.1446
lfoot -0.070702 -9.48085
ltoes 0.564274
8458
root 1.9235 16.3537 9.19822 20.8742 -37.5489 -15.7917
lowerback 25.4649 1.05145 0.991212
upperback 3.30872 2.15706 5.89044
thorax -10.7249 1.03377 5.35885
lowerneck -26.8814 5.70505 -8.6925
upperneck 4.03406 9.77934 4.42588
head 4.69668 4.96786 3.8182
rclavicle -8.26447e-014 7.11152e-014
rhumerus -43.1872 15.1044 -87.4344
rradius 116.866
rwrist -7.76504
rhand -12.1876 29.6228
rfingers 7.12502
rthumb 13.8762 0.105703
lclavicle -8.26447e-014 7.11152e-014
lhumerus 48.4227 24.5155 23.7478
lradius 21.2981
lwrist -10.175
lhand -9.09633 9.90109
lfingers 7.12502
lthumb 16.8537 39.1897
rfemur -5.27868 1.9642 14.3518
rtibia 41.3702
rfoot -15.6746 6.22848
rtoes -33.8639
lfemur -51.6 5.2819 5.31937
ltibia 47.314
lfoot -0.346475 -9.72056
ltoes -3.67492
8459
root 1.90853 16.3655 9.21504 20.7035 -37.4718 -15.6293
lowerback 25.5973 1.12387 1.00797
upperback 3.21467 2.27364 5.9215
thorax -10.9142 1.09209 5.34902
lowerneck -27.0628 5.46952 -8.84523
upperneck 4.38963 9.50771 4.69162
head 4.83634 4.84539 3.92076
rclavicle -1.85118e-015 -2.79541e-014
rhumerus -44.0529 14.7425 -87.0044
rradius 117.3
rwrist -7.87782
rhand -12.6251 29.9111
rfingers 7.12502
rthumb 13.4546 0.365655
lclavicle -1.85118e-015 -2.79541e-014
lhumerus 50.3752 26.4972 27.8643
lradius 20.8059
lwrist -14.3719
lhand -8.64818 9.24345
lfingers 7.12502
lthumb 17.2851 38.4948
rfemur -4.98595 2.17468 14.3353
rtibia 41.029
rfoot -15.3857 6.11664
rtoes -33.6231
lfemur -51.5906 5.01026 5.19498
ltibia 47.4365
lfoot -1.06036 -10.3372
ltoes -9.92864
8460
root 1.89088 16.3751 9.23401 20.7383 -37.479 -15.722
lowerback 25.5269 1.22085 1.22552
upperback 3.20348 2.45667 5.91604
thorax -10.8967 1.16737 5.15106
lowerneck -27.2802 5.37068 -8.75186
upperneck 4.63387 9.36608 4.6904
head 4.96029 4.77153 3.91049
rclavicle -7.42461e-014 2.33324e-014
rhumerus -44.6158 14.2338 -86.614
rradius 117.64
rwrist -8.26557
rhand -12.3811 29.8024
rfingers 7.12502
rthumb 13.6897 0.27264
lclavicle -7.42461e-014 2.33324e-014
lhumerus 49.1904 25.5639 26.28
lradius 21.3468
lwrist -12.5856
lhand -8.53039 9.72938
lfingers 7.12502
lthumb 17.3984 38.9707
rfemur -4.74924 2.45167 14.4543
rtibia 40.6805
rfoot -15.3305 6.04547
rtoes -33.7472
lfemur -51.583 4.85948 5.28699
ltibia 47.593
lfoot -1.28664 -10.5215
ltoes -11.7699
8461
root 1.87386 16.392 9.25522 20.7231 -37.4441 -15.7714
lowerback 25.3613 1.26884 1.55184
upperback 3.31324 2.57832 5.80916
thorax -10.6734 1.20338 4.79127
lowerneck -27.6193 5.26283 -8.77726
upperneck 4.69784 9.2323 4.92042
head 5.01266 4.72582 3.98803
rclavicle 5.32261e-014 -3.11471e-014
rhumerus -44.8543 13.685 -86.3851
rradius 117.9
rwrist -8.49354
rhand -12.2234 29.5748
rfingers 7.12502
rthumb 13.8417 0.0553555
lclavicle 5.32261e-014 -3.11471e-014
lhumerus 48.1489 24.5837 24.3557
lradius 21.9268
lwrist -10.471
lhand -8.30285 10.2863
lfingers 7.12502
lthumb 17.6174 39.5081
rfemur -4.45689 2.72062 14.5269
rtibia 40.3106
rfoot -15.3116 6.14098
rtoes -33.4508
lfemur -51.6342 4.61638 5.30555
ltibia 47.8378
lfoot -0.772204 -9.79214
ltoes -9.27205
8462
root 1.85725 16.4059 9.27096 20.6075 -37.2999 -15.6761
lowerback 25.2787 1.17698 1.72668
upperback 3.22091 2.51066 5.80174
thorax -10.7217 1.16677 4.70564
lowerneck -26.7017 5.26521 -9.02653
upperneck 4.14675 9.22229 5.11981
head 4.70129 4.74502 4.03765
rclavicle 2.83144e-014 -1.67352e-014
rhumerus -45.1985 13.5276 -86.2463
rradius 117.876
rwrist -8.61195
rhand -12.1443 29.4844
rfingers 7.12502
rthumb 13.9179 -0.029792
lclavicle 2.83144e-014 -1.67352e-014
lhumerus 46.8884 23.7885 23.0102
lradius 22.4977
lwrist -9.29522
lhand -8.35234 10.5685
lfingers 7.12502
lthumb 17.5698 39.7946
rfemur -4.14938 3.01369 14.5285
rtibia 39.9462
rfoot -15.1309 6.32734
rtoes -33.6619
lfemur -51.768 4.20364 5.23871
ltibia 48.1523
lfoot -0.552113 -8.82371
ltoes -7.65196
